<svg width="140" height="96" viewBox="0 0 140 96" fill="none" xmlns="http://www.w3.org/2000/svg">
<path d="M70 29C70 18 70 26 70 12" stroke="#86888C"/>
<path d="M70 16C74.4183 16 78 12.4183 78 8C78 3.58172 74.4183 0 70 0C65.5817 0 62 3.58172 62 8C62 12.4183 65.5817 16 70 16Z" fill="#BED883"/>
<path d="M70 52C82.1503 52 92 46.6274 92 40C92 33.3726 82.1503 28 70 28C57.8497 28 48 33.3726 48 40C48 46.6274 57.8497 52 70 52Z" fill="#FCFAFA"/>
<path d="M112 36H28V96H112V36Z" fill="#C9C9CB"/>
<path d="M114 40.074V38C105.503 38 100.805 41.3812 95.9268 44.892C95.4334 45.247 94.9378 45.6036 94.4366 45.958C89.0486 49.7678 82.7422 53.5556 70 53.5556C57.2578 53.5556 50.9514 49.7678 45.5634 45.958C45.0622 45.6036 44.5668 45.2472 44.0734 44.892C39.1954 41.3814 34.4972 38 26 38V40.074V91.926V94C34.4972 94 39.1952 90.6188 44.0732 87.108C44.5668 86.753 45.0622 86.3964 45.5634 86.042C50.9514 82.2322 57.2578 78.4444 70 78.4444C82.7422 78.4444 89.0486 82.2322 94.4366 86.042C94.9378 86.3964 95.4328 86.7526 95.9262 87.1076C100.804 90.6182 105.503 94 114 94V91.926V40.074Z" fill="#86888C"/>
<path d="M30 96C46.5685 96 60 82.5685 60 66C60 49.4315 46.5685 36 30 36C13.4315 36 0 49.4315 0 66C0 82.5685 13.4315 96 30 96Z" fill="#84BBD8"/>
<path d="M30 88C42.1503 88 52 78.1503 52 66C52 53.8497 42.1503 44 30 44C17.8497 44 8 53.8497 8 66C8 78.1503 17.8497 88 30 88Z" fill="#2589BD"/>
<path d="M30 72C33.3137 72 36 69.3137 36 66C36 62.6863 33.3137 60 30 60C26.6863 60 24 62.6863 24 66C24 69.3137 26.6863 72 30 72Z" fill="#84BBD8"/>
<path d="M30 78C36.6274 78 42 72.6274 42 66C42 59.3726 36.6274 54 30 54C23.3726 54 18 59.3726 18 66C18 72.6274 23.3726 78 30 78Z" fill="#292F36"/>
<path d="M110 96C126.569 96 140 82.5685 140 66C140 49.4315 126.569 36 110 36C93.4315 36 80 49.4315 80 66C80 82.5685 93.4315 96 110 96Z" fill="#BED883"/>
<path d="M110 88C122.15 88 132 78.1503 132 66C132 53.8497 122.15 44 110 44C97.8497 44 88 53.8497 88 66C88 78.1503 97.8497 88 110 88Z" fill="#8FB339"/>
<path d="M110 78C116.627 78 122 72.6274 122 66C122 59.3726 116.627 54 110 54C103.373 54 98 59.3726 98 66C98 72.6274 103.373 78 110 78Z" fill="#292F36"/>
</svg>
