<svg width="200" height="200" viewBox="0 0 200 200" fill="none" xmlns="http://www.w3.org/2000/svg">
<path d="M194 0H6C2.68629 0 0 2.68629 0 6V194C0 197.314 2.68629 200 6 200H194C197.314 200 200 197.314 200 194V6C200 2.68629 197.314 0 194 0Z" fill="#292F36"/>
<path d="M100 63C100 52 100 60 100 46" stroke="#86888C"/>
<path d="M100 50C104.418 50 108 46.4183 108 42C108 37.5817 104.418 34 100 34C95.5817 34 92 37.5817 92 42C92 46.4183 95.5817 50 100 50Z" fill="#BED883"/>
<path d="M100 86C112.15 86 122 80.6274 122 74C122 67.3726 112.15 62 100 62C87.8497 62 78 67.3726 78 74C78 80.6274 87.8497 86 100 86Z" fill="#FCFAFA"/>
<path d="M142 70H58V130H142V70Z" fill="#C9C9CB"/>
<path d="M144 74.074V72C135.503 72 130.805 75.3812 125.927 78.892C125.433 79.247 124.938 79.6036 124.437 79.958C119.049 83.7678 112.742 87.5556 100 87.5556C87.2578 87.5556 80.9514 83.7678 75.5634 79.958C75.0622 79.6036 74.5668 79.2472 74.0734 78.892C69.1954 75.3814 64.4972 72 56 72V74.074V125.926V128C64.4972 128 69.1952 124.619 74.0732 121.108C74.5668 120.753 75.0622 120.396 75.5634 120.042C80.9514 116.232 87.2578 112.444 100 112.444C112.742 112.444 119.049 116.232 124.437 120.042C124.938 120.396 125.433 120.753 125.926 121.108C130.804 124.618 135.503 128 144 128V125.926V74.074Z" fill="#86888C"/>
<path d="M60 130C76.5685 130 90 116.569 90 100C90 83.4315 76.5685 70 60 70C43.4315 70 30 83.4315 30 100C30 116.569 43.4315 130 60 130Z" fill="#84BBD8"/>
<path d="M60 122C72.1503 122 82 112.15 82 100C82 87.8497 72.1503 78 60 78C47.8497 78 38 87.8497 38 100C38 112.15 47.8497 122 60 122Z" fill="#2589BD"/>
<path d="M60 106C63.3137 106 66 103.314 66 100C66 96.6863 63.3137 94 60 94C56.6863 94 54 96.6863 54 100C54 103.314 56.6863 106 60 106Z" fill="#84BBD8"/>
<path d="M60 112C66.6274 112 72 106.627 72 100C72 93.3726 66.6274 88 60 88C53.3726 88 48 93.3726 48 100C48 106.627 53.3726 112 60 112Z" fill="#292F36"/>
<path d="M140 130C156.569 130 170 116.569 170 100C170 83.4315 156.569 70 140 70C123.431 70 110 83.4315 110 100C110 116.569 123.431 130 140 130Z" fill="#BED883"/>
<path d="M140 122C152.15 122 162 112.15 162 100C162 87.8497 152.15 78 140 78C127.85 78 118 87.8497 118 100C118 112.15 127.85 122 140 122Z" fill="#8FB339"/>
<path d="M140 112C146.627 112 152 106.627 152 100C152 93.3726 146.627 88 140 88C133.373 88 128 93.3726 128 100C128 106.627 133.373 112 140 112Z" fill="#292F36"/>
</svg>
