<svg width="23" height="17" viewBox="0 0 23 17" fill="none" xmlns="http://www.w3.org/2000/svg">
<path d="M0.0812988 16.343V13.543C0.0812988 12.9764 0.227132 12.4555 0.518799 11.9805C0.810466 11.5055 1.19797 11.143 1.6813 10.893C2.71463 10.3764 3.76463 9.98885 4.8313 9.73052C5.89797 9.47218 6.9813 9.34302 8.0813 9.34302C9.1813 9.34302 10.2646 9.47218 11.3313 9.73052C12.398 9.98885 13.448 10.3764 14.4813 10.893C14.9646 11.143 15.3521 11.5055 15.6438 11.9805C15.9355 12.4555 16.0813 12.9764 16.0813 13.543V16.343H0.0812988ZM18.0813 16.343V13.343C18.0813 12.6097 17.8771 11.9055 17.4688 11.2305C17.0605 10.5555 16.4813 9.97635 15.7313 9.49302C16.5813 9.59302 17.3813 9.76385 18.1313 10.0055C18.8813 10.2472 19.5813 10.543 20.2313 10.893C20.8313 11.2264 21.2896 11.5972 21.6063 12.0055C21.923 12.4139 22.0813 12.8597 22.0813 13.343V16.343H18.0813ZM8.0813 8.34302C6.9813 8.34302 6.03963 7.95135 5.2563 7.16802C4.47297 6.38468 4.0813 5.44302 4.0813 4.34302C4.0813 3.24302 4.47297 2.30135 5.2563 1.51802C6.03963 0.734684 6.9813 0.343018 8.0813 0.343018C9.1813 0.343018 10.123 0.734684 10.9063 1.51802C11.6896 2.30135 12.0813 3.24302 12.0813 4.34302C12.0813 5.44302 11.6896 6.38468 10.9063 7.16802C10.123 7.95135 9.1813 8.34302 8.0813 8.34302ZM18.0813 4.34302C18.0813 5.44302 17.6896 6.38468 16.9063 7.16802C16.123 7.95135 15.1813 8.34302 14.0813 8.34302C13.898 8.34302 13.6646 8.32218 13.3813 8.28052C13.098 8.23885 12.8646 8.19302 12.6813 8.14302C13.1313 7.60968 13.4771 7.01802 13.7188 6.36802C13.9605 5.71802 14.0813 5.04302 14.0813 4.34302C14.0813 3.64302 13.9605 2.96802 13.7188 2.31802C13.4771 1.66802 13.1313 1.07635 12.6813 0.543018C12.9146 0.459684 13.148 0.405518 13.3813 0.380518C13.6146 0.355518 13.848 0.343018 14.0813 0.343018C15.1813 0.343018 16.123 0.734684 16.9063 1.51802C17.6896 2.30135 18.0813 3.24302 18.0813 4.34302Z" fill="#FCFAFA"/>
</svg>
